General
Complete name                            : For A Good Time Call (Portable).m4v
Format                                   : MPEG-4
Format profile                           : Base Media / Version 2
Codec ID                                 : mp42
File size                                : 663 MiB
Duration                                 : 1h 27mn
Overall bit rate mode                    : Variable
Overall bit rate                         : 1 059 Kbps
Movie name                               : For a Good Time, Call...
Performer                                : Seth Rogen, Justin Long, Ari Graynor, Mimi Rogers, Lauren Miller, Mark Webber, James Wolk, Nia Vardalos, Don McManus, Ken Marino
Genre                                    : Comedy
Recorded date                            : 2012-08-31
Encoded date                             : UTC 2013-02-04 05:24:27
Tagged date                              : UTC 2013-02-13 02:33:31
Writing application                      : HandBrake 5235svn 2013020301
Cover                                    : Yes
desc                                     : College ΓÇƒfrenemiesΓÇ¥ Lauren and Katie move in together after losing a relationship and rent control, respectively. Sharing Katie's late grandmother's apartment in New York City, the girls bicker with each other until one fateful night, when Katie's noisy bedroom activities make Lauren barge in and discover a dirty little secret. This revelation brings them closer together, and Lauren (the brains) and Katie (the talent) concoct a wildly successful business venture. As profits swell, the girls reevaluate their hopes and dreams and realize that just because someone pees in your hair in college doesn't mean she won't be your best friend 10 years later.

Video #1
ID                                       : 1
Format                                   : AVC
Format/Info                              : Advanced Video Codec
Format profile                           : High@L3.1
Format settings, CABAC                   : Yes
Format settings, ReFrames                : 4 frames
Codec ID                                 : avc1
Codec ID/Info                            : Advanced Video Coding
Duration                                 : 1h 27mn
Bit rate mode                            : Variable
Bit rate                                 : 897 Kbps
Width                                    : 960 pixels
Height                                   : 408 pixels
Display aspect ratio                     : 2.35:1
Frame rate mode                          : Variable
Frame rate                               : 23.976 fps
Minimum frame rate                       : 13.320 fps
Maximum frame rate                       : 23.981 fps
Color space                              : YUV
Chroma subsampling                       : 4:2:0
Bit depth                                : 8 bits
Scan type                                : Progressive
Bits/(Pixel*Frame)                       : 0.096
Stream size                              : 561 MiB (85%)
Writing library                          : x264 core 129
Encoding settings                        : cabac=1 / ref=4 / deblock=1:0:0 / analyse=0x3:0x133 / me=umh / subme=10 / psy=1 / psy_rd=1.00:0.15 / mixed_ref=1 / me_range=32 / chroma_me=1 / trellis=2 / 8x8dct=1 / cqm=0 / deadzone=21,11 / fast_pskip=1 / chroma_qp_offset=-3 / threads=12 / lookahead_threads=2 / sliced_threads=0 / nr=0 / decimate=1 / interlaced=0 / bluray_compat=0 / constrained_intra=0 / bframes=4 / b_pyramid=2 / b_adapt=2 / b_bias=0 / direct=3 / weightb=1 / open_gop=0 / weightp=2 / keyint=300 / keyint_min=30 / scenecut=40 / intra_refresh=0 / rc_lookahead=60 / rc=crf / mbtree=1 / crf=19.0 / qcomp=0.60 / qpmin=4 / qpmax=69 / qpstep=4 / vbv_maxrate=17500 / vbv_bufsize=17500 / crf_max=0.0 / nal_hrd=none / ip_ratio=1.40 / aq=1:1.00
Language                                 : English
Encoded date                             : UTC 2013-02-04 05:24:27
Tagged date                              : UTC 2013-02-04 06:18:14
Color primaries                          : BT.709
Transfer characteristics                 : BT.709
Matrix coefficients                      : BT.709

Audio
ID                                       : 2
Format                                   : AAC
Format/Info                              : Advanced Audio Codec
Format profile                           : LC
Codec ID                                 : 40
Duration                                 : 1h 27mn
Bit rate mode                            : Variable
Bit rate                                 : 153 Kbps
Maximum bit rate                         : 276 Kbps
Channel(s)                               : 2 channels
Channel positions                        : Front: L R
Sampling rate                            : 48.0 KHz
Compression mode                         : Lossy
Delay relative to video                  : 83ms
Stream size                              : 95.6 MiB (14%)
Language                                 : English
Encoded date                             : UTC 2013-02-04 05:24:27
Tagged date                              : UTC 2013-02-04 06:18:14